<mxfile host="app.diagrams.net" modified="2023-08-08T04:10:34.851Z" agent="Mozilla/5.0 (Windows NT 10.0; Win64; x64) AppleWebKit/537.36 (KHTML, like Gecko) Chrome/115.0.0.0 Safari/537.36" etag="Kkyoc0J70lHM1Kl5UClB" version="21.6.6" type="device">
  <diagram name="Page-1" id="yZI4nIH4X4v2Qr_e17it">
    <mxGraphModel dx="1232" dy="1100" grid="1" gridSize="10" guides="1" tooltips="1" connect="1" arrows="1" fold="1" page="1" pageScale="1" pageWidth="850" pageHeight="1100" math="0" shadow="0">
      <root>
        <mxCell id="0" />
        <mxCell id="1" parent="0" />
        <mxCell id="JMouJAKnh-xvyDq2p130-14" value="" style="edgeStyle=orthogonalEdgeStyle;rounded=0;orthogonalLoop=1;jettySize=auto;html=1;" edge="1" parent="1" source="JMouJAKnh-xvyDq2p130-1" target="JMouJAKnh-xvyDq2p130-2">
          <mxGeometry relative="1" as="geometry" />
        </mxCell>
        <mxCell id="JMouJAKnh-xvyDq2p130-1" value="Start" style="ellipse;whiteSpace=wrap;html=1;fillColor=#dae8fc;strokeColor=#6c8ebf;" vertex="1" parent="1">
          <mxGeometry x="333" y="40" width="185" height="100" as="geometry" />
        </mxCell>
        <mxCell id="JMouJAKnh-xvyDq2p130-15" value="" style="edgeStyle=orthogonalEdgeStyle;rounded=0;orthogonalLoop=1;jettySize=auto;html=1;" edge="1" parent="1" source="JMouJAKnh-xvyDq2p130-2" target="JMouJAKnh-xvyDq2p130-3">
          <mxGeometry relative="1" as="geometry" />
        </mxCell>
        <mxCell id="JMouJAKnh-xvyDq2p130-2" value="Output &quot;For this challenge, add two numbers together:&quot;" style="shape=parallelogram;perimeter=parallelogramPerimeter;whiteSpace=wrap;html=1;fixedSize=1;fillColor=#e1d5e7;strokeColor=#9673a6;" vertex="1" parent="1">
          <mxGeometry x="313" y="190" width="225" height="70" as="geometry" />
        </mxCell>
        <mxCell id="JMouJAKnh-xvyDq2p130-16" value="" style="edgeStyle=orthogonalEdgeStyle;rounded=0;orthogonalLoop=1;jettySize=auto;html=1;" edge="1" parent="1" source="JMouJAKnh-xvyDq2p130-3" target="JMouJAKnh-xvyDq2p130-4">
          <mxGeometry relative="1" as="geometry" />
        </mxCell>
        <mxCell id="JMouJAKnh-xvyDq2p130-3" value="Output &quot;Please enter the first number:&quot;" style="shape=parallelogram;perimeter=parallelogramPerimeter;whiteSpace=wrap;html=1;fixedSize=1;fillColor=#e1d5e7;strokeColor=#9673a6;" vertex="1" parent="1">
          <mxGeometry x="305" y="300" width="240" height="70" as="geometry" />
        </mxCell>
        <mxCell id="JMouJAKnh-xvyDq2p130-17" value="" style="edgeStyle=orthogonalEdgeStyle;rounded=0;orthogonalLoop=1;jettySize=auto;html=1;" edge="1" parent="1" source="JMouJAKnh-xvyDq2p130-4" target="JMouJAKnh-xvyDq2p130-5">
          <mxGeometry relative="1" as="geometry" />
        </mxCell>
        <mxCell id="JMouJAKnh-xvyDq2p130-4" value="Input numberOne as an integer" style="shape=parallelogram;perimeter=parallelogramPerimeter;whiteSpace=wrap;html=1;fixedSize=1;fillColor=#d5e8d4;strokeColor=#82b366;" vertex="1" parent="1">
          <mxGeometry x="330" y="410" width="190" height="70" as="geometry" />
        </mxCell>
        <mxCell id="JMouJAKnh-xvyDq2p130-19" value="" style="edgeStyle=orthogonalEdgeStyle;rounded=0;orthogonalLoop=1;jettySize=auto;html=1;" edge="1" parent="1" source="JMouJAKnh-xvyDq2p130-5" target="JMouJAKnh-xvyDq2p130-6">
          <mxGeometry relative="1" as="geometry" />
        </mxCell>
        <mxCell id="JMouJAKnh-xvyDq2p130-5" value="Output &quot;Please enter the second number:&quot;" style="shape=parallelogram;perimeter=parallelogramPerimeter;whiteSpace=wrap;html=1;fixedSize=1;fillColor=#e1d5e7;strokeColor=#9673a6;" vertex="1" parent="1">
          <mxGeometry x="295.5" y="515" width="260" height="70" as="geometry" />
        </mxCell>
        <mxCell id="JMouJAKnh-xvyDq2p130-20" value="" style="edgeStyle=orthogonalEdgeStyle;rounded=0;orthogonalLoop=1;jettySize=auto;html=1;" edge="1" parent="1" source="JMouJAKnh-xvyDq2p130-6" target="JMouJAKnh-xvyDq2p130-9">
          <mxGeometry relative="1" as="geometry" />
        </mxCell>
        <mxCell id="JMouJAKnh-xvyDq2p130-6" value="Input numberTwo as an integer" style="shape=parallelogram;perimeter=parallelogramPerimeter;whiteSpace=wrap;html=1;fixedSize=1;fillColor=#d5e8d4;strokeColor=#82b366;" vertex="1" parent="1">
          <mxGeometry x="320" y="630" width="210" height="70" as="geometry" />
        </mxCell>
        <mxCell id="JMouJAKnh-xvyDq2p130-21" value="" style="edgeStyle=orthogonalEdgeStyle;rounded=0;orthogonalLoop=1;jettySize=auto;html=1;" edge="1" parent="1" source="JMouJAKnh-xvyDq2p130-9" target="JMouJAKnh-xvyDq2p130-12">
          <mxGeometry relative="1" as="geometry" />
        </mxCell>
        <mxCell id="JMouJAKnh-xvyDq2p130-9" value="Output is &quot;Your total number is {numberOne} + {numberTwo} + .&quot;" style="shape=parallelogram;perimeter=parallelogramPerimeter;whiteSpace=wrap;html=1;fixedSize=1;fillColor=#e1d5e7;strokeColor=#9673a6;" vertex="1" parent="1">
          <mxGeometry x="235.5" y="750" width="380" height="70" as="geometry" />
        </mxCell>
        <mxCell id="JMouJAKnh-xvyDq2p130-11" style="edgeStyle=orthogonalEdgeStyle;rounded=0;orthogonalLoop=1;jettySize=auto;html=1;exitX=0.5;exitY=1;exitDx=0;exitDy=0;" edge="1" parent="1" source="JMouJAKnh-xvyDq2p130-6" target="JMouJAKnh-xvyDq2p130-6">
          <mxGeometry relative="1" as="geometry" />
        </mxCell>
        <mxCell id="JMouJAKnh-xvyDq2p130-12" value="End Process" style="ellipse;whiteSpace=wrap;html=1;fillColor=#f8cecc;strokeColor=#b85450;" vertex="1" parent="1">
          <mxGeometry x="340.5" y="860" width="170" height="80" as="geometry" />
        </mxCell>
      </root>
    </mxGraphModel>
  </diagram>
</mxfile>
